<svg viewBox="0 0 800 600" xmlns="http://www.w3.org/2000/svg">
    <!-- Fondo degradado verde policial -->
    <defs>
        <linearGradient id="fondoGradiente" x1="0%" y1="0%" x2="100%" y2="100%">
            <stop offset="0%" style="stop-color:#1a4b3a;stop-opacity:1" />
            <stop offset="50%" style="stop-color:#2d5a45;stop-opacity:1" />
            <stop offset="100%" style="stop-color:#0f2f23;stop-opacity:1" />
        </linearGradient>

        <!-- Patrón de líneas diagonales sutil -->
        <pattern id="lineasDiagonales" patternUnits="userSpaceOnUse" width="20" height="20">
            <path d="M 0,20 l 20,-20 M -5,5 l 10,-10 M 15,25 l 10,-10" stroke="#2f6b4f"
                stroke-width="0.5" opacity="0.3" />
        </pattern>

        <!-- Sombra para elementos -->
        <filter id="sombra" x="-20%" y="-20%" width="140%" height="140%">
            <feDropShadow dx="3" dy="3" stdDeviation="3" flood-color="#000" flood-opacity="0.3" />
        </filter>
    </defs>

    <!-- Fondo principal -->
    <rect width="800" height="600" fill="url(#fondoGradiente)" />
    <rect width="800" height="600" fill="url(#lineasDiagonales)" opacity="0.4" />

    <!-- Formas geométricas abstractas de fondo -->
    <polygon points="100,50 200,80 150,150 50,120" fill="#3a7a5f" opacity="0.3" />
    <polygon points="650,450 750,480 700,550 600,520" fill="#3a7a5f" opacity="0.3" />
    <circle cx="120" cy="480" r="40" fill="#2f6b4f" opacity="0.2" />
    <circle cx="680" cy="120" r="60" fill="#2f6b4f" opacity="0.2" />

    <!-- Escudo policial abstracto -->
    <g transform="translate(400,200)" filter="url(#sombra)">
        <!-- Escudo principal -->
        <path
            d="M 0,-80 C -60,-80 -60,-40 -60,0 C -60,40 -40,70 0,80 C 40,70 60,40 60,0 C 60,-40 60,-80 0,-80 Z"
            fill="#4a9d6f" stroke="#2f6b4f" stroke-width="3" />

        <!-- Detalles internos del escudo -->
        <path
            d="M 0,-60 C -40,-60 -40,-30 -40,0 C -40,30 -25,50 0,60 C 25,50 40,30 40,0 C 40,-30 40,-60 0,-60 Z"
            fill="#5bb380" opacity="0.8" />

        <!-- Estrella central -->
        <polygon points="0,-25 7,-8 25,-8 12,3 18,20 0,10 -18,20 -12,3 -25,-8 -7,-8"
            fill="#ffffff" opacity="0.9" />

        <!-- Líneas decorativas -->
        <line x1="-20" y1="25" x2="20" y2="25" stroke="#ffffff" stroke-width="2" opacity="0.7" />
        <line x1="-15" y1="35" x2="15" y2="35" stroke="#ffffff" stroke-width="1.5" opacity="0.7" />
    </g>

    <!-- Texto principal -->
    <g transform="translate(400,380)">
        <text x="0" y="0" text-anchor="middle" font-family="Arial, sans-serif" font-size="36"
            font-weight="bold" fill="#ffffff" filter="url(#sombra)">
            PÁGINA NO ENCONTRADA
        </text>
    </g>

    <!-- Texto secundario -->
    <g transform="translate(400,420)">
        <text x="0" y="0" text-anchor="middle" font-family="Arial, sans-serif" font-size="18"
            fill="#a8d4bf">
            La página que buscas no está disponible en este momento
        </text>
    </g>

    <!-- Elementos decorativos adicionales -->
    <g transform="translate(150,300)" opacity="0.6">
        <rect x="-30" y="-5" width="60" height="10" rx="5" fill="#4a9d6f" />
        <rect x="-25" y="-3" width="50" height="6" rx="3" fill="#5bb380" />
    </g>

    <g transform="translate(650,300)" opacity="0.6">
        <rect x="-30" y="-5" width="60" height="10" rx="5" fill="#4a9d6f" />
        <rect x="-25" y="-3" width="50" height="6" rx="3" fill="#5bb380" />
    </g>

    <!-- Hexágonos decorativos -->
    <g transform="translate(200,150)" opacity="0.4">
        <polygon points="0,-15 13,-7.5 13,7.5 0,15 -13,7.5 -13,-7.5" fill="#3a7a5f" stroke="#2f6b4f"
            stroke-width="1" />
    </g>

    <g transform="translate(600,450)" opacity="0.4">
        <polygon points="0,-15 13,-7.5 13,7.5 0,15 -13,7.5 -13,-7.5" fill="#3a7a5f" stroke="#2f6b4f"
            stroke-width="1" />
    </g>

    <!-- Líneas de conexión abstractas -->
    <path d="M 200,150 Q 300,100 400,120" stroke="#4a9d6f" stroke-width="2" fill="none"
        opacity="0.3" />
    <path d="M 400,280 Q 500,350 600,450" stroke="#4a9d6f" stroke-width="2" fill="none"
        opacity="0.3" />
</svg>